<svg xmlns="http://www.w3.org/2000/svg" width="192" height="192" viewBox="0 0 192 192">
  <rect width="192" height="192" fill="#3b82f6" rx="24"/>
  <g transform="translate(28.799999999999997, 28.799999999999997) scale(1.344)">
    <path fill="white" d="M17 20a5 5 0 1 0 0-10 5 5 0 0 0 0 10zm0-2a3 3 0 1 1 0-6 3 3 0 0 1 0 6z"/>
    <path fill="white" d="M83 20a5 5 0 1 0 0-10 5 5 0 0 0 0 10zm0-2a3 3 0 1 1 0-6 3 3 0 0 1 0 6z"/>
    <path fill="white" d="M50 8l8 12H42l8-12z"/>
    <path fill="white" stroke="white" stroke-width="2" d="M17 15h16l17-7 16 7h17"/>
    <circle fill="white" cx="50" cy="8" r="4"/>
  </g>
</svg>